# xmcd CD database file
#
# Track frame offsets:
#	150
#	12620
#	30165
#	46507
#	61898
#	78373
#	93614
#	114220
#	132094
#	166657
#	197145
#	212786
#	234333
#	269011
#
# Disc length: 3954 seconds
#
# Revision: 0
# Processed by: cddbd v1.5.2PL0 Copyright (c) Steve Scherf et al.
# Submitted via: CDex 1.70beta2
#
DISCID=ad0f700e
DTITLE=Benny Carter - Jazz Roads CD105 - Swing - Vol.2 (1954)
DYEAR=2006
DGENRE=Jazz
TTITLE0=Benny Carter - Moonglow
TTITLE1=Benny Carter - My One And Only Love
TTITLE2=Benny Carter - Our Love Is Here To Stay
TTITLE3=Benny Carter - This Can't Be Love
TTITLE4=Benny Carter - Tenderly
TTITLE5=Benny Carter - Unforgettable
TTITLE6=Benny Carter - Ruby
TTITLE7=Benny Carter - Moon Song
TTITLE8=New Jazz Sounds - Laura
TTITLE9=New Jazz Sounds - That Old Black Magic
TTITLE10=New Jazz Sounds - Angel Eyes
TTITLE11=New Jazz Sounds - The Song Is You
TTITLE12=New Jazz Sounds - Just One Of Those Things
TTITLE13=New Jazz Sounds - Marriage Blues
EXTD=YEAR: 2006
EXTT0=
EXTT1=
EXTT2=
EXTT3=
EXTT4=
EXTT5=
EXTT6=
EXTT7=
EXTT8=
EXTT9=
EXTT10=
EXTT11=
EXTT12=
EXTT13=
PLAYORDER=
